<mxfile host="app.diagrams.net" modified="2024-01-01T13:32:10.868Z" agent="Mozilla/5.0 (Windows NT 10.0; Win64; x64) AppleWebKit/537.36 (KHTML, like Gecko) Chrome/120.0.0.0 Safari/537.36" etag="TrAoOAi5FGxdGcnV_AOM" version="22.1.16" type="device">
  <diagram name="Page-1" id="Fv8KaYR-JvNwcMZNE2SZ">
    <mxGraphModel dx="1434" dy="746" grid="1" gridSize="10" guides="1" tooltips="1" connect="1" arrows="1" fold="1" page="1" pageScale="1" pageWidth="827" pageHeight="1169" math="0" shadow="0">
      <root>
        <mxCell id="0" />
        <mxCell id="1" parent="0" />
        <mxCell id="BX7kA0cPgQBeDkkXXVo6-6" style="edgeStyle=orthogonalEdgeStyle;rounded=0;orthogonalLoop=1;jettySize=auto;html=1;exitX=0.5;exitY=1;exitDx=0;exitDy=0;entryX=0.5;entryY=0;entryDx=0;entryDy=0;" edge="1" parent="1" source="BX7kA0cPgQBeDkkXXVo6-1" target="BX7kA0cPgQBeDkkXXVo6-2">
          <mxGeometry relative="1" as="geometry" />
        </mxCell>
        <mxCell id="BX7kA0cPgQBeDkkXXVo6-8" style="edgeStyle=orthogonalEdgeStyle;rounded=0;orthogonalLoop=1;jettySize=auto;html=1;exitX=0.5;exitY=1;exitDx=0;exitDy=0;entryX=0.5;entryY=0;entryDx=0;entryDy=0;" edge="1" parent="1" source="BX7kA0cPgQBeDkkXXVo6-1" target="BX7kA0cPgQBeDkkXXVo6-4">
          <mxGeometry relative="1" as="geometry" />
        </mxCell>
        <mxCell id="BX7kA0cPgQBeDkkXXVo6-9" style="edgeStyle=orthogonalEdgeStyle;rounded=0;orthogonalLoop=1;jettySize=auto;html=1;exitX=0.5;exitY=1;exitDx=0;exitDy=0;" edge="1" parent="1" source="BX7kA0cPgQBeDkkXXVo6-1" target="BX7kA0cPgQBeDkkXXVo6-5">
          <mxGeometry relative="1" as="geometry" />
        </mxCell>
        <mxCell id="BX7kA0cPgQBeDkkXXVo6-27" style="edgeStyle=orthogonalEdgeStyle;rounded=0;orthogonalLoop=1;jettySize=auto;html=1;exitX=0.5;exitY=1;exitDx=0;exitDy=0;" edge="1" parent="1" source="BX7kA0cPgQBeDkkXXVo6-1" target="BX7kA0cPgQBeDkkXXVo6-3">
          <mxGeometry relative="1" as="geometry" />
        </mxCell>
        <mxCell id="BX7kA0cPgQBeDkkXXVo6-1" value="TabPane" style="rounded=0;whiteSpace=wrap;html=1;" vertex="1" parent="1">
          <mxGeometry x="400" y="130" width="120" height="40" as="geometry" />
        </mxCell>
        <mxCell id="BX7kA0cPgQBeDkkXXVo6-11" style="edgeStyle=orthogonalEdgeStyle;rounded=0;orthogonalLoop=1;jettySize=auto;html=1;exitX=0.5;exitY=1;exitDx=0;exitDy=0;entryX=0.5;entryY=0;entryDx=0;entryDy=0;" edge="1" parent="1" source="BX7kA0cPgQBeDkkXXVo6-2" target="BX7kA0cPgQBeDkkXXVo6-10">
          <mxGeometry relative="1" as="geometry" />
        </mxCell>
        <mxCell id="BX7kA0cPgQBeDkkXXVo6-2" value="Tab" style="rounded=0;whiteSpace=wrap;html=1;" vertex="1" parent="1">
          <mxGeometry x="180" y="290" width="120" height="40" as="geometry" />
        </mxCell>
        <mxCell id="BX7kA0cPgQBeDkkXXVo6-22" style="edgeStyle=orthogonalEdgeStyle;rounded=0;orthogonalLoop=1;jettySize=auto;html=1;exitX=0.5;exitY=1;exitDx=0;exitDy=0;entryX=0.5;entryY=0;entryDx=0;entryDy=0;" edge="1" parent="1" source="BX7kA0cPgQBeDkkXXVo6-3" target="BX7kA0cPgQBeDkkXXVo6-21">
          <mxGeometry relative="1" as="geometry" />
        </mxCell>
        <mxCell id="BX7kA0cPgQBeDkkXXVo6-3" value="Tab" style="rounded=0;whiteSpace=wrap;html=1;" vertex="1" parent="1">
          <mxGeometry x="330" y="290" width="120" height="40" as="geometry" />
        </mxCell>
        <mxCell id="BX7kA0cPgQBeDkkXXVo6-40" style="edgeStyle=orthogonalEdgeStyle;rounded=0;orthogonalLoop=1;jettySize=auto;html=1;exitX=0.5;exitY=1;exitDx=0;exitDy=0;entryX=0.5;entryY=0;entryDx=0;entryDy=0;" edge="1" parent="1" source="BX7kA0cPgQBeDkkXXVo6-4" target="BX7kA0cPgQBeDkkXXVo6-38">
          <mxGeometry relative="1" as="geometry" />
        </mxCell>
        <mxCell id="BX7kA0cPgQBeDkkXXVo6-4" value="Tab" style="rounded=0;whiteSpace=wrap;html=1;" vertex="1" parent="1">
          <mxGeometry x="474" y="290" width="120" height="40" as="geometry" />
        </mxCell>
        <mxCell id="BX7kA0cPgQBeDkkXXVo6-5" value="Tab" style="rounded=0;whiteSpace=wrap;html=1;" vertex="1" parent="1">
          <mxGeometry x="620" y="290" width="120" height="40" as="geometry" />
        </mxCell>
        <mxCell id="BX7kA0cPgQBeDkkXXVo6-14" style="edgeStyle=orthogonalEdgeStyle;rounded=0;orthogonalLoop=1;jettySize=auto;html=1;exitX=0.5;exitY=1;exitDx=0;exitDy=0;entryX=0.5;entryY=0;entryDx=0;entryDy=0;" edge="1" parent="1" source="BX7kA0cPgQBeDkkXXVo6-10" target="BX7kA0cPgQBeDkkXXVo6-13">
          <mxGeometry relative="1" as="geometry" />
        </mxCell>
        <mxCell id="BX7kA0cPgQBeDkkXXVo6-10" value="StackPane" style="rounded=0;whiteSpace=wrap;html=1;" vertex="1" parent="1">
          <mxGeometry x="90" y="380" width="120" height="40" as="geometry" />
        </mxCell>
        <mxCell id="BX7kA0cPgQBeDkkXXVo6-17" style="edgeStyle=orthogonalEdgeStyle;rounded=0;orthogonalLoop=1;jettySize=auto;html=1;exitX=0.5;exitY=1;exitDx=0;exitDy=0;entryX=0.5;entryY=0;entryDx=0;entryDy=0;" edge="1" parent="1" source="BX7kA0cPgQBeDkkXXVo6-13" target="BX7kA0cPgQBeDkkXXVo6-16">
          <mxGeometry relative="1" as="geometry" />
        </mxCell>
        <mxCell id="BX7kA0cPgQBeDkkXXVo6-18" style="edgeStyle=orthogonalEdgeStyle;rounded=0;orthogonalLoop=1;jettySize=auto;html=1;exitX=0.5;exitY=1;exitDx=0;exitDy=0;" edge="1" parent="1" source="BX7kA0cPgQBeDkkXXVo6-13" target="BX7kA0cPgQBeDkkXXVo6-15">
          <mxGeometry relative="1" as="geometry" />
        </mxCell>
        <mxCell id="BX7kA0cPgQBeDkkXXVo6-13" value="VBox" style="rounded=0;whiteSpace=wrap;html=1;" vertex="1" parent="1">
          <mxGeometry x="80" y="480" width="120" height="40" as="geometry" />
        </mxCell>
        <mxCell id="BX7kA0cPgQBeDkkXXVo6-15" value="Hbox" style="rounded=0;whiteSpace=wrap;html=1;" vertex="1" parent="1">
          <mxGeometry x="160" y="565" width="120" height="40" as="geometry" />
        </mxCell>
        <mxCell id="BX7kA0cPgQBeDkkXXVo6-16" value="HBox" style="rounded=0;whiteSpace=wrap;html=1;" vertex="1" parent="1">
          <mxGeometry x="20" y="565" width="120" height="40" as="geometry" />
        </mxCell>
        <mxCell id="BX7kA0cPgQBeDkkXXVo6-19" value="(VueArchive)" style="text;html=1;strokeColor=none;fillColor=none;align=center;verticalAlign=middle;whiteSpace=wrap;rounded=0;" vertex="1" parent="1">
          <mxGeometry x="210" y="250" width="60" height="30" as="geometry" />
        </mxCell>
        <mxCell id="BX7kA0cPgQBeDkkXXVo6-24" style="edgeStyle=orthogonalEdgeStyle;rounded=0;orthogonalLoop=1;jettySize=auto;html=1;exitX=0.5;exitY=1;exitDx=0;exitDy=0;entryX=0.5;entryY=0;entryDx=0;entryDy=0;" edge="1" parent="1" source="BX7kA0cPgQBeDkkXXVo6-21" target="BX7kA0cPgQBeDkkXXVo6-23">
          <mxGeometry relative="1" as="geometry" />
        </mxCell>
        <mxCell id="BX7kA0cPgQBeDkkXXVo6-21" value="StackPane" style="rounded=0;whiteSpace=wrap;html=1;" vertex="1" parent="1">
          <mxGeometry x="330" y="390" width="120" height="40" as="geometry" />
        </mxCell>
        <mxCell id="BX7kA0cPgQBeDkkXXVo6-23" value="GridPane" style="rounded=0;whiteSpace=wrap;html=1;" vertex="1" parent="1">
          <mxGeometry x="330" y="490" width="120" height="40" as="geometry" />
        </mxCell>
        <mxCell id="BX7kA0cPgQBeDkkXXVo6-25" value="(VueBureau)" style="text;html=1;strokeColor=none;fillColor=none;align=center;verticalAlign=middle;whiteSpace=wrap;rounded=0;" vertex="1" parent="1">
          <mxGeometry x="360" y="250" width="60" height="30" as="geometry" />
        </mxCell>
        <mxCell id="BX7kA0cPgQBeDkkXXVo6-28" style="edgeStyle=orthogonalEdgeStyle;rounded=0;orthogonalLoop=1;jettySize=auto;html=1;exitX=0.5;exitY=1;exitDx=0;exitDy=0;entryX=0.5;entryY=0;entryDx=0;entryDy=0;" edge="1" parent="1" source="BX7kA0cPgQBeDkkXXVo6-30" target="BX7kA0cPgQBeDkkXXVo6-32">
          <mxGeometry relative="1" as="geometry" />
        </mxCell>
        <mxCell id="BX7kA0cPgQBeDkkXXVo6-29" style="edgeStyle=orthogonalEdgeStyle;rounded=0;orthogonalLoop=1;jettySize=auto;html=1;exitX=0.5;exitY=1;exitDx=0;exitDy=0;" edge="1" parent="1" source="BX7kA0cPgQBeDkkXXVo6-30" target="BX7kA0cPgQBeDkkXXVo6-31">
          <mxGeometry relative="1" as="geometry" />
        </mxCell>
        <mxCell id="BX7kA0cPgQBeDkkXXVo6-30" value="VBox" style="rounded=0;whiteSpace=wrap;html=1;" vertex="1" parent="1">
          <mxGeometry x="640" y="430" width="120" height="40" as="geometry" />
        </mxCell>
        <mxCell id="BX7kA0cPgQBeDkkXXVo6-31" value="Label" style="rounded=0;whiteSpace=wrap;html=1;" vertex="1" parent="1">
          <mxGeometry x="720" y="525" width="120" height="40" as="geometry" />
        </mxCell>
        <mxCell id="BX7kA0cPgQBeDkkXXVo6-32" value="Label" style="rounded=0;whiteSpace=wrap;html=1;" vertex="1" parent="1">
          <mxGeometry x="580" y="525" width="120" height="40" as="geometry" />
        </mxCell>
        <mxCell id="BX7kA0cPgQBeDkkXXVo6-35" style="edgeStyle=orthogonalEdgeStyle;rounded=0;orthogonalLoop=1;jettySize=auto;html=1;exitX=0.5;exitY=1;exitDx=0;exitDy=0;entryX=0.5;entryY=0;entryDx=0;entryDy=0;" edge="1" parent="1" source="BX7kA0cPgQBeDkkXXVo6-33" target="BX7kA0cPgQBeDkkXXVo6-30">
          <mxGeometry relative="1" as="geometry" />
        </mxCell>
        <mxCell id="BX7kA0cPgQBeDkkXXVo6-33" value="StackPane" style="rounded=0;whiteSpace=wrap;html=1;" vertex="1" parent="1">
          <mxGeometry x="640" y="370" width="120" height="40" as="geometry" />
        </mxCell>
        <mxCell id="BX7kA0cPgQBeDkkXXVo6-34" style="edgeStyle=orthogonalEdgeStyle;rounded=0;orthogonalLoop=1;jettySize=auto;html=1;exitX=0.5;exitY=1;exitDx=0;exitDy=0;entryX=0.433;entryY=-0.075;entryDx=0;entryDy=0;entryPerimeter=0;" edge="1" parent="1" source="BX7kA0cPgQBeDkkXXVo6-5" target="BX7kA0cPgQBeDkkXXVo6-33">
          <mxGeometry relative="1" as="geometry" />
        </mxCell>
        <mxCell id="BX7kA0cPgQBeDkkXXVo6-36" value="(VueHistorique)" style="text;html=1;strokeColor=none;fillColor=none;align=center;verticalAlign=middle;whiteSpace=wrap;rounded=0;" vertex="1" parent="1">
          <mxGeometry x="660" y="250" width="60" height="30" as="geometry" />
        </mxCell>
        <mxCell id="BX7kA0cPgQBeDkkXXVo6-37" style="edgeStyle=orthogonalEdgeStyle;rounded=0;orthogonalLoop=1;jettySize=auto;html=1;exitX=0.5;exitY=1;exitDx=0;exitDy=0;entryX=0.5;entryY=0;entryDx=0;entryDy=0;" edge="1" parent="1" source="BX7kA0cPgQBeDkkXXVo6-38" target="BX7kA0cPgQBeDkkXXVo6-39">
          <mxGeometry relative="1" as="geometry" />
        </mxCell>
        <mxCell id="BX7kA0cPgQBeDkkXXVo6-38" value="StackPane" style="rounded=0;whiteSpace=wrap;html=1;" vertex="1" parent="1">
          <mxGeometry x="474" y="380" width="120" height="40" as="geometry" />
        </mxCell>
        <mxCell id="BX7kA0cPgQBeDkkXXVo6-39" value="TreeView" style="rounded=0;whiteSpace=wrap;html=1;" vertex="1" parent="1">
          <mxGeometry x="474" y="480" width="120" height="40" as="geometry" />
        </mxCell>
        <mxCell id="BX7kA0cPgQBeDkkXXVo6-41" value="(VueListe)" style="text;html=1;strokeColor=none;fillColor=none;align=center;verticalAlign=middle;whiteSpace=wrap;rounded=0;" vertex="1" parent="1">
          <mxGeometry x="510" y="250" width="60" height="30" as="geometry" />
        </mxCell>
      </root>
    </mxGraphModel>
  </diagram>
</mxfile>
